<svg width="1920" height="379" viewBox="0 0 1920 379" fill="none" xmlns="http://www.w3.org/2000/svg">
<g clip-path="url(#clip0_2_23)">
<g clip-path="url(#clip1_2_23)">
<path d="M0 378.869L16 347.303C32 316.209 64 252.367 96 195.973C128 138.869 160 89.2139 192 101.391C224 114.041 256 189.707 288 221.273C320 252.367 352 240.544 384 214.889C416 189.707 448 151.874 480 132.958C512 114.041 544 114.041 576 139.224C608 164.879 640 214.534 672 252.721C704 290.199 736 316.209 768 303.204C800 290.199 832 240.544 864 246.455C896 252.367 928 316.209 960 290.554C992 265.372 1024 151.874 1056 95.1252C1088 38.3764 1120 38.3764 1152 76.2089C1184 114.041 1216 189.707 1248 233.805C1280 278.377 1312 290.199 1344 265.372C1376 240.544 1408 176.702 1440 170.79C1472 164.879 1504 214.534 1536 208.623C1568 202.712 1600 138.869 1632 139.224C1664 138.869 1696 202.712 1728 246.455C1760 290.199 1792 316.209 1824 296.938C1856 278.377 1888 214.534 1904 183.441L1920 151.874V0.543823H1904C1888 0.543823 1856 0.543823 1824 0.543823C1792 0.543823 1760 0.543823 1728 0.543823C1696 0.543823 1664 0.543823 1632 0.543823C1600 0.543823 1568 0.543823 1536 0.543823C1504 0.543823 1472 0.543823 1440 0.543823C1408 0.543823 1376 0.543823 1344 0.543823C1312 0.543823 1280 0.543823 1248 0.543823C1216 0.543823 1184 0.543823 1152 0.543823C1120 0.543823 1088 0.543823 1056 0.543823C1024 0.543823 992 0.543823 960 0.543823C928 0.543823 896 0.543823 864 0.543823C832 0.543823 800 0.543823 768 0.543823C736 0.543823 704 0.543823 672 0.543823C640 0.543823 608 0.543823 576 0.543823C544 0.543823 512 0.543823 480 0.543823C448 0.543823 416 0.543823 384 0.543823C352 0.543823 320 0.543823 288 0.543823C256 0.543823 224 0.543823 192 0.543823C160 0.543823 128 0.543823 96 0.543823C64 0.543823 32 0.543823 16 0.543823H0V378.869Z" fill="#FACC15"/>
</g>
</g>
<defs>
<clipPath id="clip0_2_23">
<rect width="1920" height="378.326" fill="white" transform="translate(0 0.543823)"/>
</clipPath>
<clipPath id="clip1_2_23">
<rect width="1920" height="378.326" fill="white" transform="translate(0 0.543823)"/>
</clipPath>
</defs>
</svg>
