<svg width="1920" height="380" viewBox="0 0 1920 380" fill="none" xmlns="http://www.w3.org/2000/svg">
<g clip-path="url(#clip0_2_20)">
<path d="M0 189.971L45.7333 208.888C91.4667 227.804 182.667 265.636 274.667 284.553C365.733 303.469 457.333 303.469 548 278.287C640 252.632 732 202.976 822.667 202.622C914.267 202.976 1005.33 252.632 1097.33 246.72C1188.53 240.809 1280 176.966 1372 171.055C1462.8 165.144 1554.67 214.799 1645.33 227.804C1737.2 240.809 1828 214.799 1874.67 202.622L1920 189.971V379.134H1874.27C1828.53 379.134 1737.33 379.134 1645.33 379.134C1554.27 379.134 1462.67 379.134 1372 379.134C1280 379.134 1188 379.134 1097.33 379.134C1005.73 379.134 914.667 379.134 822.667 379.134C731.467 379.134 640 379.134 548 379.134C457.2 379.134 365.333 379.134 274.667 379.134C182.8 379.134 92 379.134 45.3333 379.134H0V189.971Z" fill="#FACC15"/>
</g>
<defs>
<clipPath id="clip0_2_20">
<rect width="1920" height="378.326" fill="white" transform="translate(0 0.808594)"/>
</clipPath>
</defs>
</svg>
