<?xml version="1.0" standalone="no"?>
<!DOCTYPE svg PUBLIC "-//W3C//DTD SVG 20010904//EN"
 "http://www.w3.org/TR/2001/REC-SVG-20010904/DTD/svg10.dtd">
<svg version="1.0" xmlns="http://www.w3.org/2000/svg"
 width="283.000000pt" height="64.000000pt" viewBox="0 0 283.000000 64.000000"
 preserveAspectRatio="xMidYMid meet">

<g transform="translate(0.000000,64.000000) scale(0.100000,-0.100000)"
fill="#000000" stroke="none">
<path d="M27 585 c-13 -67 -31 -453 -21 -485 8 -28 18 -36 78 -60 l69 -27 141
44 c78 24 165 50 194 59 48 14 52 18 52 45 0 93 -42 364 -60 382 -7 8 -181 -7
-362 -29 -36 -4 -48 -3 -49 8 0 7 -8 31 -18 53 l-18 40 -6 -30z m301 -163 c3
-17 8 -20 31 -16 23 5 29 2 34 -17 7 -25 -6 -39 -37 -39 -12 0 -16 -5 -12 -16
3 -9 6 -38 6 -65 0 -47 1 -49 24 -43 28 7 37 -3 26 -32 -10 -27 -82 -48 -103
-30 -9 7 -18 51 -25 122 -6 61 -12 117 -14 124 -3 14 40 42 57 37 6 -2 11 -13
13 -25z"/>
</g>
</svg>
