<svg xmlns="http://www.w3.org/2000/svg" xmlns:xlink="http://www.w3.org/1999/xlink" viewBox="0 0 480 109" xmlns:v="https://vecta.io/nano"><path d="M92.41 87.39l-.22-4.14-.38-6.69-.18-2.47-.42-5.25-.38-4.37-.41-4.12-.38-3.65-.73-6.01-1.02-7.5-1.36-8.18c-.82-4.47-1.76-8.91-2.94-13.3-.29-1.08-.55-2.16-.96-3.2-.61.03-1.22-.07-1.81.15-.69-.08-1.36.16-2.05.19-.71.03-1.41.17-2.12.26-.16.02-.32.04-.47.04-.4.01-.79-.02-1.18.13-.14.05-.31.03-.47.03-.29.01-.58-.02-.86.1-.07.03-.15.05-.23.05-.5 0-1 .12-1.5.14-.72.03-1.41.27-2.13.2-.66.24-1.36.17-2.04.26-.67.09-1.36.19-2.05.22-.71.04-1.41.17-2.12.26-.05.01-.1.04-.15.03-.69-.06-1.36.16-2.05.19-.71.03-1.41.17-2.12.26-.05.01-.1.04-.16.03-.69-.07-1.36.2-2.05.18-.18-.01-.37.02-.55.07a2.27 2.27 0 0 1-.63.08c-.4 0-.79.07-1.18.11l-1.89.21c-.79.07-1.58.13-2.35.28-.18.03-.37.04-.55.04-.29.01-.58.01-.86.11-.17.06-.37.05-.55.05-.29.01-.58-.02-.86.11-.07.03-.15.05-.23.05-.5 0-1 .12-1.5.14-.72.03-1.41.27-2.13.2-.66.24-1.36.17-2.04.26-.67.09-1.36.19-2.05.22-.71.04-1.41.17-2.12.26-.08.01-.16.05-.23.04-.75-.09-1.48.11-2.21.2-.68.08-1.37.04-2.04.24-.05.01-.1.04-.15.03-.7-.07-1.36.16-2.05.19-.71.03-1.41.17-2.12.26-.13.02-.26.04-.39.04-.37.01-.74-.02-1.1.13-.12.05-.26.03-.39.03-.34.01-.69-.02-1.02.13-.07.03-.16.03-.24.03-.45.01-.9-.02-1.34.16-.72-.08-1.42.13-2.13.2-.68.07-1.37.05-2.04.25-.15.05-.32.03-.47.04-.32.01-.63 0-.94.11-.17.06-.37.04-.55.05-.29.01-.58-.01-.86.11-.07.03-.16.05-.23.04-.75-.08-1.47.16-2.21.19-.68.02-1.36.17-2.04.26-.24.03-.48.03-.71.04.01.65.29 1.23.46 1.84l2.15 7.57 2.72 10.45 1.34 5.64 1.83 8.77c.32 1.77.71 3.52 1.05 5.29.2 1.06.35 2.14.53 3.21l.59 3.36.36 2.43.44 2.82c.08.52.16 1.05.19 1.57.03.43.16.83.19 1.26.03.6.18 1.2.26 1.8.08.63.13 1.26.2 1.89.06.61.11 1.21.2 1.81.12.84.23 1.67.29 2.52.06.79.17 1.57.27 2.36.01.05.03.1.03.16-.06.88.2 1.74.18 2.61-.01.29-.01.59.1.87.03.07.05.16.04.23-.06.96.17 1.9.18 2.85 0 .45.03.89.11 1.34.09.52.04 1.06.05 1.59.01.34-.01.69.1 1.03.06.2.05.42.05.63l.01 1.83c.01.42-.02.85.11 1.26.06.2.03.42.03.63l.01 2.55h.32c.21-.24.52-.25.78-.33l20.77-6.48 24.05-7.49 14.91-4.65 4.57-1.42c.43-.14.44-.17.42-.6zm-24.5-15.16l-.06 1.99c-.04.88-.1 1.75-.16 2.63-.01.19-.05.37-.07.55-.07.72-.45 1.24-1.04 1.62-.22.14-.46.27-.7.38-2.71 1.25-5.5 2.27-8.39 3-1.06.27-2.13.44-3.22.52-1.07.08-2.12-.04-3.14-.41-1.01-.37-1.8-1-2.38-1.91s-.91-1.92-1.1-2.97c-.25-1.45-.27-2.91-.25-4.37v-3.27c.03-2.85-.08-5.69-.31-8.52-.2-2.46-.46-4.92-.78-7.37a174.64 174.64 0 0 0-1.35-8.5c-.39-2.14-.85-4.27-1.27-6.41-.05-.23-.09-.47-.13-.71-.1-.52.09-.94.48-1.28.31-.27.68-.4 1.06-.54l6.24-2.2 1.13-.39c1.11-.36 1.96.11 2.2 1.27.28 1.35.52 2.71.77 4.07l.39 2.04c.07.34.15.4.5.34l2.9-.52 4.86-.86c.98-.17 1.59.25 1.78 1.23.09.44.13.89.18 1.34l.45 3.72c.04.3.04.59-.07.86-.19.5-.52.86-1.07.97l-2.19.44-5.62 1.14c-.25.05-.33.15-.29.39.3 1.7.44 3.42.66 5.14.15 1.16.28 2.32.37 3.49l.43 6.92c.07 1.49.04 2.98.06 4.47 0 .37 0 .74.12 1.11.2.67.51.92 1.2.95.51.02 1.01-.1 1.49-.22l4.62-1.25c.28-.08.56-.16.86-.15.47.01.75.25.82.7.03.2.02.39.02.57z" fill="#f04953"/><path d="M26.56 108.36h-.16c-.14-.19-.36-.21-.55-.29L4.29 99.58l-3.11-1.22c-.23-.09-.35-.21-.37-.45l-.08-.55-.31-3.41-.37-7.88-.03-12.51.04-2.59c0-.26.04-.52-.05-.78l.67-17.92.38-6.92.62-8.82 1.16-13.97.43-4.6.37-3.81.59-5.71L4.72 4c.08.14.18.26.24.41l2.44 6.21c.09.22.13.46.19.69.02.13.03.26.07.38l1.02 2.92 2.24 6.85 1.3 4.24c.05.17.12.35.27.47.01.65.29 1.23.46 1.84l2.15 7.57 2.72 10.45 1.34 5.64 1.83 8.77 1.05 5.29.53 3.21.59 3.36.36 2.43.44 2.82.19 1.57c.03.43.16.83.19 1.26.03.6.18 1.2.26 1.8l.2 1.89.2 1.81.29 2.52.27 2.36c.01.05.03.1.03.16-.06.88.2 1.74.18 2.61-.01.29-.01.59.1.87.03.07.05.16.04.23-.06.96.17 1.9.18 2.85 0 .45.03.89.11 1.34.09.52.04 1.06.05 1.59.01.34-.01.69.1 1.03.06.2.05.42.05.63l.01 1.83c.01.42-.02.85.11 1.26.06.2.03.42.03.63l.01 2.57z" fill="#bb333a"/><path d="M84.5 15.86c0 .06-.07.14-.13.18s-.15.05-.23.06l-1.74.18c-.24.01-.49-.03-.71.03-.42.12-.84.13-1.26.13-.11 0-.21 0-.32.02-.94.15-1.88.29-2.83.3-.08 0-.16 0-.24.02-.74.23-1.52.15-2.28.26-.78.11-1.57.28-2.37.2-.08-.01-.16.03-.24.04l-2.2.26-2.29.22c-.41.02-.84.07-1.26.13-.58.09-1.15.16-1.74.16-.03 0-.05 0-.08.01-.41.17-.84.12-1.26.14-.13 0-.28-.01-.39.04-.36.14-.73.11-1.1.12-.18.01-.38 0-.55.06-.29.1-.57.09-.87.1-.19 0-.39-.03-.56.02-.72.24-1.49.03-2.2.29-.75-.06-1.47.24-2.21.17a.87.87 0 0 0-.32.03c-.74.22-1.52.17-2.28.25-.78.09-1.57.28-2.37.21-.05 0-.11.01-.16.02-.66.21-1.36.19-2.04.25l-2.37.23c-.49.01-.99.14-1.5.14-.05 0-.11 0-.16.02-.35.16-.73.11-1.1.13-.19.01-.38-.01-.56.02-.91.15-1.83.27-2.76.3-.11 0-.22-.01-.32.03-.41.16-.84.12-1.26.14-.16.01-.32.01-.47.06-.29.1-.58.09-.87.09-.19.01-.38-.01-.56.02-.91.15-1.83.28-2.76.3-.11 0-.22-.01-.32.03-.41.16-.84.12-1.26.14-.16.01-.32.01-.47.06-.29.1-.58.09-.87.09-.19 0-.39-.03-.56.03-.72.23-1.49.04-2.2.29-.75-.06-1.47.24-2.21.17-.1-.01-.22-.01-.31.03-.33.14-.68.11-1.02.12-.21.01-.43 0-.63.06-.29.09-.57.09-.87.1-.19 0-.39-.03-.56.02-.72.24-1.49.03-2.2.29-.75-.06-1.47.24-2.21.17-.13-.01-.27.01-.39.05-.26.1-.52.1-.79.1-.72-.02-1.42.16-2.13.21l-1.26.12c-.48.06-.75-.15-.89-.58-.03-.1-.07-.2-.11-.3l-1.27-3.09-2.07-5-1.14-2.8a.41.41 0 0 0-.29-.24c-.06-.23-.1-.47-.19-.69l-2.4-6.21c-.06-.15-.16-.27-.24-.41.02-.12.09-.18.21-.19l1.67-.12 3.74-.14 7.8-.33 3.74-.15 7.88-.33 7.64-.32 7.8-.32 7.72-.32 3.9-.15 7.72-.32 7.8-.33 4.78-.2 2.2-.01c.13 0 .26-.04.36-.14h.48c-.07.25.03.47.1.7l3.16 10.78.98 3.36a.81.81 0 0 1 .1.39z" fill="#f1656e"/><path d="M83.02 18.51c-.61.03-1.22-.07-1.81.15-.69-.08-1.36.16-2.05.19-.71.03-1.41.17-2.12.26l-.47.04c-.4.01-.79-.02-1.18.13-.14.05-.31.03-.47.03-.29.01-.58-.02-.86.1-.07.03-.15.05-.23.05-.5 0-1 .12-1.5.14-.72.03-1.41.27-2.13.2-.66.24-1.36.17-2.04.26l-2.05.22c-.71.04-1.41.17-2.12.26-.05.01-.1.04-.15.03-.69-.06-1.36.16-2.05.19-.71.03-1.41.17-2.12.26-.05.01-.1.04-.16.03-.69-.07-1.36.2-2.05.18-.18-.01-.37.02-.55.07a2.27 2.27 0 0 1-.63.08c-.4 0-.79.07-1.18.11l-1.89.21-2.35.28c-.18.03-.37.04-.55.04-.29.01-.58.01-.86.11-.17.06-.37.05-.55.05-.29.01-.58-.02-.86.11-.07.03-.15.05-.23.05-.5 0-1 .12-1.5.14-.72.03-1.41.27-2.13.2-.66.24-1.36.17-2.04.26l-2.05.22c-.71.04-1.41.17-2.12.26-.08.01-.16.05-.23.04-.75-.09-1.48.11-2.21.2-.68.08-1.37.04-2.04.24-.05.01-.1.04-.15.03-.7-.07-1.36.16-2.05.19-.71.03-1.41.17-2.12.26-.13.02-.26.04-.39.04-.37.01-.74-.02-1.1.13-.12.05-.26.03-.39.03-.34.01-.69-.02-1.02.13-.07.03-.16.03-.24.03-.45.01-.9-.02-1.34.16-.72-.08-1.42.13-2.13.2-.68.07-1.37.05-2.04.25-.15.05-.32.03-.47.04-.32.01-.63 0-.94.11-.17.06-.37.04-.55.05-.29.01-.58-.01-.86.11-.07.03-.16.05-.23.04-.75-.08-1.47.16-2.21.19-.68.02-1.36.17-2.04.26-.24.03-.48.03-.71.04-.16-.12-.22-.3-.27-.47l-1.3-4.24-2.24-6.85-1.04-2.94c-.04-.12-.05-.26-.07-.38a.41.41 0 0 1 .29.24l1.14 2.8 2.07 5 1.27 3.09.11.3c.14.43.41.64.89.58l1.26-.12c.71-.05 1.41-.23 2.13-.21.27.01.53 0 .79-.1.12-.04.26-.06.39-.05.75.06 1.47-.24 2.21-.17.71-.26 1.48-.05 2.2-.29.17-.06.37-.02.56-.02.29-.01.58-.01.87-.1.2-.06.42-.05.63-.06.34-.01.69.01 1.02-.12.09-.04.21-.04.31-.03.75.07 1.47-.23 2.21-.17.71-.25 1.48-.05 2.2-.29.17-.06.37-.02.56-.03.29-.01.58.01.87-.09.15-.05.31-.05.47-.06.42-.02.85.02 1.26-.14.09-.04.21-.02.32-.03.93-.02 1.84-.15 2.76-.3.18-.03.37-.02.56-.02.29-.01.58.01.87-.09.15-.05.31-.05.47-.06.42-.02.85.02 1.26-.14.09-.04.21-.02.32-.03.93-.02 1.84-.15 2.76-.3.18-.03.37-.02.56-.02.37-.01.75.03 1.1-.13.05-.02.1-.02.16-.02.5 0 1-.13 1.5-.14.8-.02 1.58-.16 2.37-.23.68-.06 1.38-.04 2.04-.25.05-.02.11-.03.16-.02.8.07 1.59-.12 2.37-.21.76-.08 1.54-.03 2.28-.25.1-.03.21-.04.32-.03.75.07 1.47-.24 2.21-.17.71-.26 1.48-.04 2.2-.29.17-.06.37-.02.56-.02.29-.01.58 0 .87-.1.17-.06.37-.05.55-.06.37-.02.74.02 1.1-.12.12-.05.26-.03.39-.04.42-.01.85.03 1.26-.14.02-.01.05-.01.08-.01a10.24 10.24 0 0 0 1.74-.16 8.82 8.82 0 0 1 1.26-.13c.77-.03 1.52-.18 2.29-.22.74-.03 1.47-.17 2.2-.26.08-.01.16-.04.24-.04.8.08 1.59-.09 2.37-.2.76-.11 1.54-.03 2.28-.26.07-.02.16-.02.24-.02.95-.02 1.89-.16 2.83-.3.1-.02.21-.02.32-.02.42 0 .84-.01 1.26-.13.22-.07.47-.03.71-.03.05.49.28.94.4 1.41.03.27.11.55.18.82z" fill="#e54149"/><path d="M47.42 70l-.31-8.52-.78-7.37-1.35-8.5-1.27-6.41-.13-.71c-.1-.52.09-.94.48-1.28.31-.27.68-.4 1.06-.54l6.24-2.2 1.13-.4c1.11-.36 1.96.11 2.2 1.27l.77 4.07.39 2.04c.07.34.15.4.5.34l2.9-.52 4.86-.86c.98-.17 1.59.25 1.78 1.23.09.44.13.89.18 1.34l.45 3.72c.04.3.04.59-.07.86-.19.5-.52.86-1.07.97l-2.19.44-5.62 1.14c-.25.05-.33.16-.29.39l.66 5.14.37 3.49.43 6.92.06 4.47c0 .37 0 .74.12 1.11.2.67.51.92 1.2.95.51.02 1.01-.1 1.49-.22l4.61-1.25c.28-.08.56-.16.86-.15.47.01.75.25.82.7.03.18.02.37.02.56l-.06 1.99-.16 2.63c-.01.19-.05.37-.07.55-.07.72-.45 1.24-1.04 1.62-.22.14-.46.27-.7.38-2.71 1.25-5.5 2.27-8.39 3-1.06.27-2.13.44-3.22.52-1.07.08-2.12-.04-3.14-.41-1.01-.37-1.8-1-2.38-1.91s-.91-1.92-1.1-2.97c-.25-1.45-.27-2.91-.25-4.37l.01-3.25z" fill="#fff"/><defs><path id="A" d="M144.77 40.63l-2.48 11.95h-9.47l-3.9 19.65c0 1.95.89 2.74 2.48 2.74 2.04 0 4.16-1.06 5.13-1.95l1.59 10.45c-3.1 2.48-7.52 3.98-11.6 3.98-7.52 0-12.48-5.05-12.48-12.04 0-2.3.44-4.25 4.43-22.84h-6.11l2.57-11.95h6.02l2.66-12.57h14.34l-2.66 12.57h9.48v.01zm22.49 27h-10.09v.18c0 4.96 2.66 7.52 7.44 7.52 4.25 0 8.59-1.77 12.04-4.34l7.61 9.74c-4.87 4.25-12.66 6.73-19.65 6.73-12.66 0-20.62-7.88-20.62-19.47 0-15.76 12.66-28.41 28.24-28.41 10.27 0 17.53 5.13 17.53 12.48-.02 10.17-8.34 16.01-22.5 15.57h0zm4.43-16.02c-5.05 0-9.29 2.83-11.86 6.9h9.21c4.69 0 7.52-1.5 7.52-3.98-.01-1.68-2.04-2.92-4.87-2.92h0zm63.73-.53l-26.38 22.75h21.78l-2.74 12.57h-41.16l1.95-10.45 26.38-22.75h-20.89L197 40.63h40.45l-2.03 10.45h0zm44.7 0l-26.38 22.75h21.78l-2.74 12.57h-41.16l1.95-10.45 26.38-22.75h-20.89l2.66-12.57h40.45l-2.05 10.45h0zm28.42 36.38c-6.37 0-11.33-3.01-14.16-7.88l-1.42 6.82h-15.05l12.84-61.87h15.05l-4.43 21.33c4.16-3.9 9.47-6.28 15.4-6.28 10.45 0 17.44 7.7 17.44 18.59 0 15.3-10.98 29.29-25.67 29.29h0zm3.1-35.41c-7.88 0-14.43 7.61-14.43 15.31 0 4.51 3.1 7.61 7.88 7.61 7.97 0 14.69-7.35 14.69-15.14 0-4.59-3.19-7.78-8.14-7.78h0zm41.69-17.08c-4.34 0-7.35-3.19-7.35-7.17 0-4.78 4.25-8.59 8.67-8.59 4.07 0 7.08 3.28 7.08 7.26.01 4.51-4.06 8.5-8.4 8.5h0zm-4.25 51.42h-14.96l9.56-45.76h14.96l-9.56 45.76h0zm43.55-45.76l-2.48 11.95h-9.47l-3.9 19.65c0 1.95.89 2.74 2.48 2.74 2.04 0 4.16-1.06 5.13-1.95l1.59 10.45c-3.1 2.48-7.52 3.98-11.6 3.98-7.52 0-12.48-5.05-12.48-12.04 0-2.3.44-4.25 4.43-22.84h-6.11l2.57-11.95h6.02l2.66-12.57h14.34l-2.66 12.57h9.48v.01zm22.48 27h-10.09v.18c0 4.96 2.66 7.52 7.44 7.52 4.25 0 8.59-1.77 12.04-4.34l7.61 9.74c-4.87 4.25-12.66 6.73-19.65 6.73-12.66 0-20.63-7.88-20.63-19.47 0-15.76 12.66-28.41 28.24-28.41 10.27 0 17.53 5.13 17.53 12.48 0 10.17-8.32 16.01-22.49 15.57h0zm4.43-16.02c-5.05 0-9.29 2.83-11.86 6.9h9.21c4.69 0 7.52-1.5 7.52-3.98 0-1.68-2.04-2.92-4.87-2.92h0zm53.64 3.36c-3.28-2.48-7.7-4.25-11.33-4.25-3.9 0-6.99 1.86-6.99 3.89 0 1.06.89 1.77 6.02 3.19 8.23 2.12 15.31 4.07 15.31 12.84 0 10.09-9.21 16.82-21.6 16.82-8.14 0-15.67-2.92-20.54-7.26l7.35-8.94c3.81 3.19 9.47 4.87 13.72 4.87 4.43 0 7.26-1.68 7.26-3.98 0-.89-.44-1.86-5.93-3.28-8.76-2.21-15.4-3.9-15.4-12.39 0-9.91 9.21-16.91 20.89-16.91 7.26 0 13.28 2.66 18.06 6.11l-6.82 9.29h0z"/></defs><use xlink:href="#A" fill="#1c1d23"/></svg>